# Blender v2.82 (sub 7) OBJ File: 'first one.blend'
# www.blender.org
mtllib first one.mtl
o Plane_Plane.001
v -3.911928 -0.142907 4.039460
v 3.825141 -0.142907 4.039460
v -3.911928 -0.142907 -3.865206
v 3.825141 -0.142907 -3.865206
v 0.520655 3.445065 0.050004
v -0.043394 -0.142907 4.039460
v -0.043394 -0.142907 -3.865206
v -3.911928 -0.142907 0.087127
v 3.825141 -0.142907 0.087127
v 1.890873 1.011188 2.063293
v -1.977661 1.011188 -1.889040
v 1.890873 1.011188 -1.889040
v -1.977661 1.588811 2.063293
v 1.444631 2.898051 0.993995
v -0.396141 2.898051 -0.886651
v 2.542103 2.895909 -2.066975
v -0.396141 2.898051 0.993995
v 0.520655 2.346754 -1.918485
v 2.454587 2.346754 0.050004
v -1.363275 2.321004 0.005911
v 0.570993 2.321004 1.982078
v 3.807722 5.415141 -2.167836
v 4.731698 4.868127 -1.223845
v 2.890926 4.868127 -3.104491
v 4.728108 4.865985 -3.196001
v 3.807722 4.316830 -4.136324
v 5.741653 4.316830 -2.167836
vt 0.000000 0.000000
vt 0.000000 0.000000
vt 0.000000 0.000000
vt 0.000000 0.000000
vt 0.000000 0.000000
vt 0.000000 0.000000
vt 0.000000 0.000000
vt 0.000000 0.000000
vt 0.000000 0.000000
vt 0.000000 0.000000
vt 0.000000 0.000000
vt 0.000000 0.000000
vt 0.000000 0.000000
vt 0.000000 0.000000
vt 0.000000 0.000000
vt 0.000000 0.000000
vt 0.000000 0.000000
vt 0.000000 0.000000
vt 0.000000 0.000000
vt 0.000000 0.000000
vt 0.000000 0.000000
vt 0.000000 0.000000
vt 0.000000 0.000000
vt 0.000000 0.000000
vt 0.000000 0.000000
vt 0.000000 0.000000
vt 0.000000 0.000000
vn 0.0000 -0.8635 -0.5043
vn 0.6670 -0.7450 0.0000
vn -0.5124 -0.8588 0.0000
vn 0.0000 -0.8635 0.5043
vn 0.0000 -0.6160 0.7878
vn 0.0525 0.0759 0.9957
vn -0.9428 0.3302 0.0467
vn -0.8760 -0.4823 0.0000
vn 0.5891 -0.8007 -0.1090
vn 0.6930 -0.7134 0.1043
vn 0.5124 -0.8588 0.0000
vn -0.4688 -0.5168 -0.7163
vn -0.0932 -0.6244 -0.7756
vn 0.0000 -0.7521 -0.6591
vn 0.0000 -0.8652 -0.5014
vn 0.1957 -0.7513 -0.6303
vn 0.6637 -0.6985 0.2676
vn -0.7272 -0.4605 -0.5091
vn 0.3574 -0.6538 0.6669
vn -0.4937 -0.8694 -0.0205
vn -0.3613 0.8421 0.4004
vn 0.0232 -0.8730 0.4871
vn -0.4937 -0.8693 0.0224
vn -0.6202 0.1737 -0.7650
vn 0.1022 -0.8141 -0.5717
vn 0.6442 -0.2688 0.7160
vn 0.5134 -0.8581 -0.0014
vn 0.4073 -0.8499 -0.3344
usemtl None
s off
f 2/1/1 6/2/1 10/3/1
f 1/4/2 8/5/2 13/6/2
f 4/7/3 9/8/3 12/9/3
f 4/7/4 12/9/4 7/10/4
f 7/10/4 11/11/4 3/12/4
f 7/10/5 12/9/5 18/13/5 11/11/5
f 12/9/6 16/14/6 18/13/6
f 12/9/7 19/15/7 16/14/7
f 12/9/8 9/8/8 10/3/8 19/15/8
f 9/8/3 2/1/3 10/3/3
f 13/6/9 20/16/9 17/17/9
f 13/6/10 8/5/10 11/11/10 20/16/10
f 8/5/11 3/12/11 11/11/11
f 10/3/12 21/18/12 14/19/12
f 10/3/13 6/2/13 13/6/13 21/18/13
f 6/2/14 1/4/14 13/6/14
f 14/19/15 17/17/15 5/20/15
f 14/19/1 21/18/1 17/17/1
f 21/18/16 13/6/16 17/17/16
f 17/17/11 15/21/11 5/20/11
f 17/17/11 20/16/11 15/21/11
f 20/16/17 11/11/17 15/21/17
f 19/15/18 10/3/18 14/19/18
f 18/13/19 15/21/19 11/11/19
f 22/22/20 27/23/20 23/24/20
f 19/15/21 27/23/21 25/25/21 16/14/21
f 25/25/22 22/22/22 24/26/22
f 22/22/23 25/25/23 27/23/23
f 19/15/24 14/19/24 23/24/24 27/23/24
f 5/20/25 22/22/25 23/24/25 14/19/25
f 18/13/26 26/27/26 24/26/26 15/21/26
f 24/26/22 26/27/22 25/25/22
f 15/21/27 24/26/27 22/22/27 5/20/27
f 16/14/28 18/13/28 26/27/28 25/25/28
